TITLE ""
FILE "Step3_Track32.mp3" MP3
  TRACK 01 AUDIO
    TITLE "Step3_Track32_01"
    INDEX 01 00:00:00
  TRACK 02 AUDIO
    TITLE "Step3_Track32_02"
    INDEX 01 00:00:22
  TRACK 03 AUDIO
    TITLE "Step3_Track32_03"
    INDEX 01 00:01:74
  TRACK 04 AUDIO
    TITLE "Step3_Track32_04"
    INDEX 01 00:02:54
  TRACK 05 AUDIO
    TITLE "Step3_Track32_05"
    INDEX 01 00:03:54
  TRACK 06 AUDIO
    TITLE "Step3_Track32_06"
    INDEX 01 00:03:69
  TRACK 07 AUDIO
    TITLE "Step3_Track32_07"
    INDEX 01 00:06:62
  TRACK 08 AUDIO
    TITLE "Step3_Track32_08"
    INDEX 01 00:07:01
  TRACK 09 AUDIO
    TITLE "Step3_Track32_09"
    INDEX 01 00:07:67
  TRACK 10 AUDIO
    TITLE "Step3_Track32_10"
    INDEX 01 00:08:00
  TRACK 11 AUDIO
    TITLE "Step3_Track32_11"
    INDEX 01 00:10:60
  TRACK 12 AUDIO
    TITLE "Step3_Track32_12"
    INDEX 01 00:11:04
  TRACK 13 AUDIO
    TITLE "Step3_Track32_13"
    INDEX 01 00:12:00
  TRACK 14 AUDIO
    TITLE "Step3_Track32_14"
    INDEX 01 00:12:12
  TRACK 15 AUDIO
    TITLE "Step3_Track32_15"
    INDEX 01 00:14:40
  TRACK 16 AUDIO
    TITLE "Step3_Track32_16"
    INDEX 01 00:14:55
  TRACK 17 AUDIO
    TITLE "Step3_Track32_17"
    INDEX 01 00:15:55
  TRACK 18 AUDIO
    TITLE "Step3_Track32_18"
    INDEX 01 00:15:67
  TRACK 19 AUDIO
    TITLE "Step3_Track32_19"
    INDEX 01 00:18:43
  TRACK 20 AUDIO
    TITLE "Step3_Track32_20"
    INDEX 01 00:19:06
  TRACK 21 AUDIO
    TITLE "Step3_Track32_21"
    INDEX 01 00:19:74
  TRACK 22 AUDIO
    TITLE "Step3_Track32_22"
    INDEX 01 00:20:21
  TRACK 23 AUDIO
    TITLE "Step3_Track32_23"
    INDEX 01 00:22:30
  TRACK 24 AUDIO
    TITLE "Step3_Track32_24"
    INDEX 01 00:22:51
  TRACK 25 AUDIO
    TITLE "Step3_Track32_25"
    INDEX 01 00:23:51
  TRACK 26 AUDIO
    TITLE "Step3_Track32_26"
    INDEX 01 00:23:64
  TRACK 27 AUDIO
    TITLE "Step3_Track32_27"
    INDEX 01 00:26:37
  TRACK 28 AUDIO
    TITLE "Step3_Track32_28"
    INDEX 01 00:26:66
  TRACK 29 AUDIO
    TITLE "Step3_Track32_29"
    INDEX 01 00:27:68
  TRACK 30 AUDIO
    TITLE "Step3_Track32_30"
    INDEX 01 00:28:09
  TRACK 31 AUDIO
    TITLE "Step3_Track32_31"
    INDEX 01 00:30:66
  TRACK 32 AUDIO
    TITLE "Step3_Track32_32"
    INDEX 01 00:31:19
  TRACK 33 AUDIO
    TITLE "Step3_Track32_33"
    INDEX 01 00:32:06
  TRACK 34 AUDIO
    TITLE "Step3_Track32_34"
    INDEX 01 00:32:08
  TRACK 35 AUDIO
    TITLE "Step3_Track32_35"
    INDEX 01 00:34:60
  TRACK 36 AUDIO
    TITLE "Step3_Track32_36"
    INDEX 01 00:35:13
  TRACK 37 AUDIO
    TITLE "Step3_Track32_37"
    INDEX 01 00:36:16
  TRACK 38 AUDIO
    TITLE "Step3_Track32_38"
    INDEX 01 00:36:28
  TRACK 39 AUDIO
    TITLE "Step3_Track32_39"
    INDEX 01 00:39:08
  TRACK 40 AUDIO
    TITLE "Step3_Track32_40"
    INDEX 01 00:39:40
  TRACK 41 AUDIO
    TITLE "Step3_Track32_41"
    INDEX 01 00:40:37
  TRACK 42 AUDIO
    TITLE "Step3_Track32_42"
    INDEX 01 00:40:43
  TRACK 43 AUDIO
    TITLE "Step3_Track32_43"
    INDEX 01 00:43:45
